<svg width="14" height="13" viewBox="0 0 14 13" fill="none" xmlns="http://www.w3.org/2000/svg">
<path d="M2.5 3.5C3.32031 3.5 4 2.84375 4 2C4 1.17969 3.32031 0.5 2.5 0.5C1.65625 0.5 1 1.17969 1 2C1 2.84375 1.65625 3.5 2.5 3.5ZM2.5 7.64844V7.625C2.5 7.34375 2.61719 7.08594 2.80469 6.89844L4.49219 5.28125C4.53906 5.25781 4.58594 5.23438 4.63281 5.21094C4.42188 4.64844 3.85938 4.27344 3.25 4.25H1.75C0.90625 4.25 0.25 4.92969 0.25 5.75V8C0.25 8.42188 0.578125 8.75 1 8.75V11.75C1 12.1719 1.32812 12.5 1.75 12.5H3.25C3.64844 12.5 4 12.1719 4 11.75V9.5L2.80469 8.39844C2.61719 8.21094 2.47656 7.92969 2.47656 7.64844H2.5ZM11.5 3.5C12.3203 3.5 13 2.84375 13 2C13 1.17969 12.3203 0.5 11.5 0.5C10.6562 0.5 10 1.17969 10 2C10 2.84375 10.6562 3.5 11.5 3.5ZM12.25 4.25H10.75C10.1172 4.27344 9.55469 4.64844 9.34375 5.21094C9.39062 5.23438 9.4375 5.25781 9.48438 5.30469L11.1719 6.89844C11.3594 7.08594 11.5 7.34375 11.5 7.64844C11.5 7.92969 11.3594 8.1875 11.1719 8.39844L10 9.5V11.75C10 12.1719 10.3281 12.5 10.75 12.5H12.25C12.6484 12.5 13 12.1719 13 11.75V8.75C13.3984 8.75 13.75 8.42188 13.75 8V5.75C13.75 4.92969 13.0703 4.25 12.25 4.25ZM10.6562 7.4375L8.96875 5.84375C8.92188 5.79688 8.85156 5.75 8.78125 5.75C8.61719 5.75 8.5 5.89062 8.5 6.03125V6.875H5.5V6.03125C5.5 5.89062 5.35938 5.75 5.21875 5.75C5.125 5.75 5.05469 5.79688 5.00781 5.84375L3.32031 7.4375C3.27344 7.48438 3.25 7.55469 3.25 7.64844C3.25 7.71875 3.27344 7.78906 3.32031 7.83594L5.00781 9.42969C5.05469 9.47656 5.125 9.52344 5.19531 9.52344C5.35938 9.52344 5.47656 9.38281 5.47656 9.24219H5.5V8.375H8.5V9.24219C8.5 9.38281 8.61719 9.52344 8.78125 9.52344C8.85156 9.52344 8.92188 9.47656 8.96875 9.42969L10.6562 7.83594C10.7031 7.78906 10.75 7.71875 10.75 7.64844C10.75 7.55469 10.7031 7.48438 10.6562 7.4375Z" fill="#4CB147"/>
</svg>
