<svg width="16" height="19" viewBox="0 0 16 19" fill="none" xmlns="http://www.w3.org/2000/svg">
<path d="M14.1875 2.5H12.5V0.671875C12.5 0.460938 12.2891 0.25 12.0781 0.25H10.6719C10.4258 0.25 10.25 0.460938 10.25 0.671875V2.5H5.75V0.671875C5.75 0.460938 5.53906 0.25 5.32812 0.25H3.92188C3.67578 0.25 3.5 0.460938 3.5 0.671875V2.5H1.8125C0.863281 2.5 0.125 3.27344 0.125 4.1875V16.5625C0.125 17.5117 0.863281 18.25 1.8125 18.25H14.1875C15.1016 18.25 15.875 17.5117 15.875 16.5625V4.1875C15.875 3.27344 15.1016 2.5 14.1875 2.5ZM13.9766 16.5625H2.02344C1.88281 16.5625 1.8125 16.4922 1.8125 16.3516V5.875H14.1875V16.3516C14.1875 16.4922 14.082 16.5625 13.9766 16.5625ZM12.1133 9.53125C12.2539 9.35547 12.2539 9.10938 12.1133 8.93359L11.3047 8.125C11.1641 7.94922 10.8828 7.94922 10.707 8.125L6.80469 11.9922L5.25781 10.4453C5.08203 10.2695 4.83594 10.2695 4.66016 10.4453L3.85156 11.2188C3.71094 11.3945 3.71094 11.6758 3.85156 11.8164L6.48828 14.4883C6.66406 14.6641 6.94531 14.6641 7.08594 14.4883L12.1133 9.53125Z" fill="#273142"/>
</svg>
