<svg width="86" height="86" viewBox="0 0 86 86" fill="none" xmlns="http://www.w3.org/2000/svg">
<path d="M85.625 43C85.625 19.625 66.375 0.375 43 0.375C19.4531 0.375 0.375 19.625 0.375 43C0.375 66.5469 19.4531 85.625 43 85.625C66.375 85.625 85.625 66.5469 85.625 43ZM38.0156 65.6875C36.9844 66.7188 35.0938 66.7188 34.0625 65.6875L16.1875 47.8125C15.1562 46.7812 15.1562 44.8906 16.1875 43.8594L20.1406 40.0781C21.1719 38.875 22.8906 38.875 23.9219 40.0781L36.125 52.1094L61.9062 26.3281C62.9375 25.125 64.6562 25.125 65.6875 26.3281L69.6406 30.1094C70.6719 31.1406 70.6719 33.0312 69.6406 34.0625L38.0156 65.6875Z" fill="#4CB147"/>
</svg>
