<svg width="16" height="15" viewBox="0 0 16 15" fill="none" xmlns="http://www.w3.org/2000/svg">
<path d="M8 2.92188C6.44727 2.92188 5.1875 4.18164 5.1875 5.73438C5.1875 7.28711 6.44727 8.54688 8 8.54688C9.55273 8.54688 10.8125 7.28711 10.8125 5.73438C10.8125 4.18164 9.55273 2.92188 8 2.92188ZM8 7.14062C7.20898 7.14062 6.59375 6.52539 6.59375 5.73438C6.59375 4.97266 7.20898 4.32812 8 4.32812C8.76172 4.32812 9.40625 4.97266 9.40625 5.73438C9.40625 6.52539 8.76172 7.14062 8 7.14062ZM8 0.109375C3.98633 0.109375 0.734375 3.36133 0.734375 7.375C0.734375 11.3887 3.98633 14.6406 8 14.6406C12.0137 14.6406 15.2656 11.3887 15.2656 7.375C15.2656 3.36133 12.0137 0.109375 8 0.109375ZM8 13.2344C6.53516 13.2344 5.1875 12.707 4.16211 11.8281C4.60156 11.1543 5.36328 10.6855 6.21289 10.6855C6.82812 10.8613 7.41406 10.9492 8 10.9492C8.55664 10.9492 9.14258 10.8613 9.75781 10.6855C10.6074 10.7148 11.3691 11.1543 11.8086 11.8281C10.7832 12.707 9.43555 13.2344 8 13.2344ZM12.7461 10.7734C12.043 9.86523 10.9297 9.25 9.66992 9.25C9.37695 9.25 8.9082 9.54297 8 9.54297C7.0625 9.54297 6.59375 9.25 6.30078 9.25C5.04102 9.25 3.92773 9.86523 3.22461 10.7734C2.52148 9.83594 2.14062 8.66406 2.14062 7.375C2.14062 4.15234 4.74805 1.51562 8 1.51562C11.2227 1.51562 13.8594 4.15234 13.8594 7.375C13.8594 8.66406 13.4492 9.83594 12.7461 10.7734Z" fill="#4CB147"/>
</svg>
