<svg width="8" height="11" viewBox="0 0 8 11" fill="none" xmlns="http://www.w3.org/2000/svg">
<path d="M4.144 3.392C4.76 3.392 5.31067 3.54133 5.796 3.84C6.29067 4.12933 6.67333 4.526 6.944 5.03C7.224 5.52467 7.364 6.066 7.364 6.654C7.364 7.27 7.21467 7.844 6.916 8.376C6.61733 8.89867 6.202 9.31867 5.67 9.636C5.14733 9.95333 4.55933 10.112 3.906 10.112C3.33667 10.112 2.80933 9.99067 2.324 9.748C1.83867 9.496 1.43733 9.15533 1.12 8.726C0.802667 8.29667 0.597333 7.80667 0.504 7.256L1.736 7.046C1.82 7.578 2.04867 8.026 2.422 8.39C2.80467 8.74467 3.29467 8.922 3.892 8.922C4.33067 8.922 4.71333 8.81933 5.04 8.614C5.36667 8.39933 5.614 8.11933 5.782 7.774C5.95933 7.42867 6.048 7.05533 6.048 6.654C6.048 6.05667 5.86133 5.562 5.488 5.17C5.124 4.76867 4.62 4.568 3.976 4.568C3.556 4.568 3.18267 4.66133 2.856 4.848C2.52933 5.03467 2.254 5.296 2.03 5.632L0.798 5.31L1.722 0.242H6.916V1.404H2.744L2.268 4.064C2.81867 3.616 3.444 3.392 4.144 3.392Z" fill="#4CB147"/>
</svg>
