<svg width="12" height="19" viewBox="0 0 12 19" fill="none" xmlns="http://www.w3.org/2000/svg">
<path d="M6 0.25C3.1875 0.25 0.9375 2.53516 0.9375 5.3125C0.9375 7.84375 2.73047 9.91797 5.15625 10.3047V17.2656L5.71875 18.1094C5.85938 18.3203 6.10547 18.3203 6.24609 18.1094L6.84375 17.2656V10.3047C9.23438 9.91797 11.0625 7.84375 11.0625 5.3125C11.0625 2.53516 8.77734 0.25 6 0.25ZM6 8.6875C4.13672 8.6875 2.625 7.17578 2.625 5.3125C2.625 3.48438 4.13672 1.9375 6 1.9375C7.82812 1.9375 9.375 3.48438 9.375 5.3125C9.375 7.17578 7.82812 8.6875 6 8.6875ZM6 3.0625C4.73438 3.0625 3.75 4.08203 3.75 5.3125C3.75 5.62891 3.99609 5.875 4.3125 5.875C4.59375 5.875 4.875 5.62891 4.875 5.3125C4.875 4.71484 5.36719 4.1875 6 4.1875C6.28125 4.1875 6.5625 3.94141 6.5625 3.625C6.5625 3.34375 6.28125 3.0625 6 3.0625Z" fill="#273142"/>
</svg>
