<svg width="154" height="40" viewBox="0 0 154 40" fill="none" xmlns="http://www.w3.org/2000/svg">
<path d="M2.46399 31V8.696H8.67199C12.32 8.696 15.1467 9.688 17.152 11.672C19.1573 13.6347 20.16 16.4187 20.16 20.024C20.16 23.5653 19.168 26.2853 17.184 28.184C15.2213 30.0613 12.3733 31 8.63999 31H2.46399ZM8.35199 28.28C11.2747 28.28 13.472 27.6293 14.944 26.328C16.416 25.0053 17.152 22.872 17.152 19.928C17.152 14.2533 14.304 11.416 8.60799 11.416H5.40799V28.28H8.35199ZM29.8178 31.256C28.3458 31.256 27.0231 30.9147 25.8498 30.232C24.6764 29.528 23.7591 28.5573 23.0978 27.32C22.4364 26.0827 22.1058 24.6747 22.1058 23.096C22.1058 21.5173 22.4364 20.12 23.0978 18.904C23.7591 17.6667 24.6658 16.7067 25.8178 16.024C26.9911 15.32 28.3244 14.968 29.8178 14.968C31.2898 14.968 32.6124 15.32 33.7858 16.024C34.9591 16.7067 35.8764 17.6667 36.5378 18.904C37.1991 20.1413 37.5298 21.5387 37.5298 23.096C37.5298 24.6533 37.1991 26.0507 36.5378 27.288C35.8764 28.5253 34.9591 29.496 33.7858 30.2C32.6124 30.904 31.2898 31.256 29.8178 31.256ZM29.8178 28.76C31.2898 28.76 32.4631 28.248 33.3378 27.224C34.2338 26.2 34.6818 24.824 34.6818 23.096C34.6818 21.368 34.2338 20.0027 33.3378 19C32.4631 17.976 31.2898 17.464 29.8178 17.464C28.3244 17.464 27.1404 17.976 26.2658 19C25.4124 20.0027 24.9858 21.368 24.9858 23.096C24.9858 24.824 25.4231 26.2 26.2978 27.224C27.1724 28.248 28.3458 28.76 29.8178 28.76ZM46.944 31.256C45.408 31.256 44.0853 30.8933 42.976 30.168C41.8667 29.4213 41.024 28.44 40.448 27.224C39.872 25.9867 39.584 24.6213 39.584 23.128C39.584 21.6987 39.8613 20.3653 40.416 19.128C40.9707 17.8907 41.792 16.888 42.88 16.12C43.9893 15.352 45.3333 14.968 46.912 14.968C48.4267 14.968 49.7493 15.352 50.88 16.12C52.0107 16.8667 52.864 17.9653 53.44 19.416L50.944 20.408C50.5813 19.4907 50.0587 18.776 49.376 18.264C48.6933 17.7307 47.872 17.464 46.912 17.464C45.4613 17.464 44.352 18.0187 43.584 19.128C42.8373 20.216 42.464 21.5493 42.464 23.128C42.464 24.7067 42.8373 26.04 43.584 27.128C44.352 28.216 45.472 28.76 46.944 28.76C47.9253 28.76 48.7467 28.504 49.408 27.992C50.0693 27.48 50.56 26.7547 50.88 25.816L53.376 26.808C52.864 28.2587 52.0427 29.368 50.912 30.136C49.8027 30.8827 48.48 31.256 46.944 31.256ZM63.3897 17.464H59.4857V26.648C59.4857 27.352 59.6244 27.9173 59.9017 28.344C60.1791 28.7493 60.7017 28.952 61.4697 28.952C62.0031 28.952 62.6431 28.8347 63.3897 28.6V30.84C62.5364 31.1173 61.6724 31.256 60.7977 31.256C59.5391 31.256 58.5364 30.9147 57.7897 30.232C57.0431 29.528 56.6697 28.4187 56.6697 26.904V17.464H54.0457V15.224H56.6697V11.064L59.4857 9.464V15.224H63.3897V17.464Z" fill="#101825"/>
<path d="M76.936 31.48C74.8453 31.48 72.9893 31 71.368 30.04C69.768 29.0587 68.52 27.6933 67.624 25.944C66.7493 24.1947 66.312 22.168 66.312 19.864C66.312 17.56 66.7493 15.5333 67.624 13.784C68.52 12.0133 69.768 10.648 71.368 9.688C72.9893 8.70667 74.8453 8.216 76.936 8.216C79.048 8.216 80.904 8.70667 82.504 9.688C84.104 10.648 85.3413 12.0133 86.216 13.784C87.112 15.5333 87.56 17.56 87.56 19.864C87.56 22.168 87.112 24.1947 86.216 25.944C85.32 27.6933 84.072 29.0587 82.472 30.04C80.872 31 79.0267 31.48 76.936 31.48ZM76.936 27.8C78.3013 27.8 79.4853 27.48 80.488 26.84C81.512 26.1787 82.3013 25.2507 82.856 24.056C83.4107 22.8613 83.688 21.464 83.688 19.864C83.688 17.4107 83.08 15.4693 81.864 14.04C80.648 12.6107 79.0053 11.896 76.936 11.896C74.8667 11.896 73.224 12.6107 72.008 14.04C70.792 15.448 70.184 17.3893 70.184 19.864C70.184 22.3173 70.792 24.2587 72.008 25.688C73.224 27.096 74.8667 27.8 76.936 27.8ZM98.0628 14.904C99.8974 14.904 101.316 15.416 102.319 16.44C103.321 17.4427 103.823 18.8827 103.823 20.76V31H100.111V22.136C100.111 20.7707 99.8548 19.768 99.3428 19.128C98.8521 18.4667 98.0841 18.136 97.0388 18.136C95.8441 18.136 94.9481 18.5627 94.3508 19.416C93.7748 20.2693 93.4868 21.592 93.4868 23.384V31H89.7748V15.224H93.4868V16.92C94.5108 15.576 96.0361 14.904 98.0628 14.904ZM110.118 31.32C109.008 31.32 108.123 30.9893 107.462 30.328C106.8 29.6453 106.47 28.632 106.47 27.288V8.696H110.15V26.552C110.15 27.448 110.555 27.896 111.366 27.896C111.643 27.896 112.038 27.8213 112.55 27.672V30.84C111.696 31.16 110.886 31.32 110.118 31.32ZM118.349 31H114.669V15.224H118.349V31ZM118.413 12.696H114.605V8.696H118.413V12.696ZM129.777 14.904C131.611 14.904 133.03 15.416 134.033 16.44C135.035 17.4427 135.537 18.8827 135.537 20.76V31H131.825V22.136C131.825 20.7707 131.569 19.768 131.057 19.128C130.566 18.4667 129.798 18.136 128.753 18.136C127.558 18.136 126.662 18.5627 126.065 19.416C125.489 20.2693 125.201 21.592 125.201 23.384V31H121.488V15.224H125.201V16.92C126.225 15.576 127.75 14.904 129.777 14.904ZM152.357 22.872C152.357 23.2773 152.325 23.768 152.261 24.344H141.381C141.445 25.4533 141.818 26.3387 142.501 27C143.184 27.64 144.144 27.96 145.381 27.96C146.149 27.96 146.842 27.832 147.461 27.576C148.101 27.2987 148.698 26.8507 149.253 26.232L151.813 28.504C150.96 29.4427 150 30.1467 148.933 30.616C147.888 31.0853 146.704 31.32 145.381 31.32C143.653 31.32 142.213 30.9573 141.061 30.232C139.909 29.4853 139.056 28.504 138.501 27.288C137.946 26.0507 137.669 24.6853 137.669 23.192C137.669 21.7413 137.936 20.3867 138.469 19.128C139.024 17.8693 139.856 16.856 140.965 16.088C142.096 15.2987 143.482 14.904 145.125 14.904C146.682 14.904 148.005 15.256 149.093 15.96C150.181 16.664 150.992 17.624 151.525 18.84C152.08 20.0347 152.357 21.3787 152.357 22.872ZM148.805 21.464C148.826 20.4827 148.496 19.6613 147.813 19C147.13 18.3387 146.213 18.008 145.061 18.008C143.952 18.008 143.077 18.3493 142.437 19.032C141.818 19.6933 141.445 20.504 141.317 21.464H148.805Z" fill="#4CB147"/>
</svg>
