<svg width="22" height="18" viewBox="0 0 22 18" fill="none" xmlns="http://www.w3.org/2000/svg">
<path d="M18.875 6.05078H15.5C15.4648 6.05078 15.4648 6.05078 15.4648 6.05078C14.9023 6.05078 14.375 6.29688 13.9531 6.61328C14.2344 6.68359 14.5156 6.82422 14.7266 7L15.4648 7.66797C15.4648 7.66797 15.4648 7.63281 15.5 7.63281H18.875C19.1562 7.63281 19.4375 7.87891 19.4375 8.16016V11.3242H18.3125V15.543H16.0625V12.4141L15.9922 12.4492L14.7266 13.5742C14.6211 13.6797 14.4805 13.75 14.375 13.8203V16.0703C14.375 16.668 14.8672 17.125 15.5 17.125H18.875C19.4727 17.125 20 16.668 20 16.0703V12.9062C20.5977 12.9062 21.125 12.4492 21.125 11.8516V8.16016C21.125 7 20.1055 6.05078 18.875 6.05078ZM17.1875 5.52344C18.7344 5.52344 20 4.36328 20 2.88672C20 1.44531 18.7344 0.25 17.1875 0.25C15.6055 0.25 14.375 1.44531 14.375 2.88672C14.375 4.36328 15.6055 5.52344 17.1875 5.52344ZM17.1875 1.83203C17.7852 1.83203 18.3125 2.32422 18.3125 2.88672C18.3125 3.48438 17.7852 3.94141 17.1875 3.94141C16.5547 3.94141 16.0625 3.48438 16.0625 2.88672C16.0625 2.32422 16.5547 1.83203 17.1875 1.83203ZM5.97266 12.4492L5.9375 12.4141V15.543H3.6875V11.3242H2.5625V8.16016C2.5625 7.87891 2.80859 7.63281 3.125 7.63281H6.5V7.66797L7.23828 7C7.44922 6.82422 7.73047 6.68359 8.01172 6.61328C7.58984 6.29688 7.0625 6.08594 6.5 6.08594V6.05078H3.125C1.85938 6.05078 0.875 7 0.875 8.16016V11.8516C0.875 12.4492 1.36719 12.9062 2 12.9062V16.0703C2 16.668 2.49219 17.125 3.125 17.125H6.5C7.09766 17.125 7.625 16.668 7.625 16.0703V13.8203C7.48438 13.75 7.34375 13.6797 7.23828 13.5742L5.97266 12.4492ZM4.8125 5.52344C6.35938 5.52344 7.625 4.36328 7.625 2.88672C7.625 1.44531 6.35938 0.25 4.8125 0.25C3.23047 0.25 2 1.44531 2 2.88672C2 4.36328 3.23047 5.52344 4.8125 5.52344ZM4.8125 1.83203C5.41016 1.83203 5.9375 2.32422 5.9375 2.88672C5.9375 3.48438 5.41016 3.94141 4.8125 3.94141C4.17969 3.94141 3.6875 3.48438 3.6875 2.88672C3.6875 2.32422 4.17969 1.83203 4.8125 1.83203ZM16.4844 9.98828L13.9531 7.77344C13.8828 7.70312 13.7773 7.66797 13.6719 7.66797C13.6016 7.66797 13.5312 7.66797 13.4961 7.66797C13.3555 7.73828 13.25 7.87891 13.25 8.05469V9.21484H8.75V8.05469C8.71484 7.87891 8.60938 7.73828 8.46875 7.66797C8.43359 7.66797 8.36328 7.66797 8.32812 7.66797C8.1875 7.66797 8.08203 7.70312 8.01172 7.77344L5.48047 9.98828C5.41016 10.0586 5.33984 10.1641 5.33984 10.3047C5.33984 10.4102 5.41016 10.5156 5.48047 10.5859L8.01172 12.8359C8.08203 12.8711 8.1875 12.9414 8.29297 12.9414C8.36328 12.9414 8.43359 12.9062 8.46875 12.9062C8.60938 12.8359 8.71484 12.6953 8.75 12.5195V11.3242H13.25V12.5195C13.25 12.6953 13.3555 12.8359 13.4961 12.9062C13.5312 12.9062 13.6016 12.9414 13.6367 12.9414C13.7773 12.9414 13.8828 12.8711 13.9531 12.8359L16.4844 10.5859C16.5547 10.5156 16.5898 10.4102 16.5898 10.3047C16.5898 10.1641 16.5547 10.0586 16.4844 9.98828Z" fill="#273142"/>
</svg>
