<svg width="86" height="86" viewBox="0 0 86 86" fill="none" xmlns="http://www.w3.org/2000/svg">
<path d="M43 0.375C19.4531 0.375 0.375 19.4531 0.375 43C0.375 66.5469 19.4531 85.625 43 85.625C66.5469 85.625 85.625 66.5469 85.625 43C85.625 19.4531 66.5469 0.375 43 0.375ZM63.7969 54.3438C64.6562 55.0312 64.6562 56.4062 63.7969 57.2656L57.0938 63.9688C56.2344 64.8281 54.8594 64.8281 54.1719 63.9688L43 52.625L31.6562 63.9688C30.9688 64.8281 29.5938 64.8281 28.7344 63.9688L22.0312 57.0938C21.1719 56.4062 21.1719 55.0312 22.0312 54.1719L33.375 43L22.0312 31.8281C21.1719 31.1406 21.1719 29.7656 22.0312 28.9062L28.9062 22.2031C29.5938 21.3438 30.9688 21.3438 31.8281 22.2031L43 33.375L54.1719 22.2031C54.8594 21.3438 56.2344 21.3438 57.0938 22.2031L63.7969 28.9062C64.6562 29.7656 64.6562 31.1406 63.7969 31.8281L52.625 43L63.7969 54.3438Z" fill="#DD2727"/>
</svg>
