<svg width="16" height="12" viewBox="0 0 16 12" fill="none" xmlns="http://www.w3.org/2000/svg">
<path d="M15.207 4.4707C14.5332 4.99805 13.6836 5.64258 10.6953 7.81055C10.1094 8.25 9.02539 9.2168 8 9.2168C6.94531 9.2168 5.89062 8.25 5.27539 7.81055C2.28711 5.64258 1.4375 4.99805 0.763672 4.4707C0.646484 4.38281 0.5 4.4707 0.5 4.61719V10.5938C0.5 11.3848 1.11523 12 1.90625 12H14.0938C14.8555 12 15.5 11.3848 15.5 10.5938V4.61719C15.5 4.4707 15.3242 4.38281 15.207 4.4707ZM8 8.25C8.67383 8.2793 9.64062 7.40039 10.1387 7.04883C14.0352 4.23633 14.3281 3.97266 15.207 3.26953C15.3828 3.15234 15.5 2.94727 15.5 2.71289V2.15625C15.5 1.39453 14.8555 0.75 14.0938 0.75H1.90625C1.11523 0.75 0.5 1.39453 0.5 2.15625V2.71289C0.5 2.94727 0.587891 3.15234 0.763672 3.26953C1.64258 3.97266 1.93555 4.23633 5.83203 7.04883C6.33008 7.40039 7.29688 8.2793 8 8.25Z" fill="#D45A5A"/>
</svg>
