<svg width="16" height="16" viewBox="0 0 16 16" fill="none" xmlns="http://www.w3.org/2000/svg">
<path d="M14.9434 1.60742L11.8965 0.904297C11.5742 0.816406 11.2227 0.992188 11.0762 1.31445L9.66992 4.5957C9.55273 4.88867 9.64062 5.21094 9.875 5.41602L11.6621 6.88086C10.6074 9.10742 8.76172 10.9824 6.47656 12.0664L5.01172 10.2793C4.80664 10.0449 4.48438 9.95703 4.19141 10.0742L0.910156 11.4805C0.587891 11.627 0.441406 11.9785 0.5 12.3008L1.20312 15.3477C1.29102 15.6699 1.55469 15.875 1.90625 15.875C9.40625 15.875 15.5 9.81055 15.5 2.28125C15.5 1.95898 15.2656 1.69531 14.9434 1.60742Z" fill="#D45A5A"/>
</svg>
