<svg width="22" height="14" viewBox="0 0 22 14" fill="none" xmlns="http://www.w3.org/2000/svg">
<path d="M19.9648 1.625C19.7539 1.625 19.543 1.69531 19.332 1.83594L15.5 4.26172V2.1875C15.5 1.27344 14.6562 0.5 13.6719 0.5H2.66797C1.68359 0.5 0.875 1.27344 0.875 2.1875V12.3477C0.875 13.2617 1.68359 14 2.66797 14H13.6719C14.6562 14 15.5 13.2617 15.5 12.3477V10.2734L19.332 12.6992C19.543 12.8398 19.7539 12.875 19.9648 12.875C20.5625 12.875 21.125 12.418 21.125 11.7852V2.75C21.125 2.08203 20.5625 1.625 19.9648 1.625ZM13.8125 5.28125V12.2773C13.7773 12.3125 13.7422 12.3125 13.6719 12.3125H2.66797C2.59766 12.3125 2.5625 12.3125 2.5625 12.2773V2.25781C2.5625 2.22266 2.59766 2.1875 2.66797 2.1875H13.6719C13.7422 2.1875 13.7773 2.22266 13.8125 2.25781V5.28125ZM19.4375 10.7656L15.5 8.30469V6.23047L19.4375 3.76953V10.7656Z" fill="#273142"/>
</svg>
