<svg width="8" height="11" viewBox="0 0 8 11" fill="none" xmlns="http://www.w3.org/2000/svg">
<path d="M3.92 10.112C3.25733 10.112 2.66 9.99533 2.128 9.762C1.596 9.51933 1.176 9.16467 0.868 8.698C0.56 8.23133 0.406 7.67133 0.406 7.018L1.652 6.948C1.652 7.564 1.862 8.04467 2.282 8.39C2.71133 8.73533 3.27133 8.908 3.962 8.908C4.606 8.908 5.13333 8.74933 5.544 8.432C5.95467 8.10533 6.16 7.648 6.16 7.06C6.16 6.37867 5.90333 5.93067 5.39 5.716C4.886 5.50133 4.242 5.394 3.458 5.394V4.358C4.13 4.36733 4.662 4.246 5.054 3.994C5.446 3.73267 5.642 3.34067 5.642 2.818C5.642 2.35133 5.47867 1.98733 5.152 1.726C4.82533 1.46467 4.40533 1.334 3.892 1.334C3.35067 1.334 2.92133 1.48333 2.604 1.782C2.28667 2.08067 2.12333 2.482 2.114 2.986L0.882 2.902C0.882 2.342 1.01733 1.852 1.288 1.432C1.55867 1.012 1.92267 0.69 2.38 0.465999C2.84667 0.241999 3.36467 0.129999 3.934 0.129999C4.48467 0.129999 4.984 0.237333 5.432 0.451999C5.88933 0.657333 6.24867 0.956 6.51 1.348C6.77133 1.73067 6.902 2.17867 6.902 2.692C6.902 3.24267 6.74333 3.686 6.426 4.022C6.118 4.358 5.72133 4.59133 5.236 4.722C5.88933 4.89 6.412 5.17 6.804 5.562C7.20533 5.954 7.406 6.472 7.406 7.116C7.406 7.74133 7.24733 8.28267 6.93 8.74C6.622 9.188 6.202 9.52867 5.67 9.762C5.14733 9.99533 4.564 10.112 3.92 10.112Z" fill="white"/>
</svg>
