<svg width="8" height="10" viewBox="0 0 8 10" fill="none" xmlns="http://www.w3.org/2000/svg">
<path d="M7.322 8.838V10H0.784V8.908C0.970667 8.77733 1.11067 8.67467 1.204 8.6C2.03467 8.02133 2.758 7.47533 3.374 6.962C3.99 6.44867 4.53133 5.86067 4.998 5.198C5.46467 4.53533 5.698 3.85867 5.698 3.168C5.698 2.61733 5.544 2.17867 5.236 1.852C4.93733 1.52533 4.50333 1.362 3.934 1.362C3.29933 1.362 2.81867 1.57667 2.492 2.006C2.17467 2.426 2.00667 2.972 1.988 3.644L0.77 3.546C0.77 2.93 0.891333 2.36533 1.134 1.852C1.386 1.32933 1.75467 0.914 2.24 0.606C2.72533 0.297999 3.29933 0.143999 3.962 0.143999C4.55 0.143999 5.068 0.269999 5.516 0.521999C5.964 0.764666 6.30933 1.11467 6.552 1.572C6.804 2.02 6.93 2.54267 6.93 3.14C6.93 3.868 6.74333 4.55867 6.37 5.212C6.006 5.86533 5.52533 6.472 4.928 7.032C4.33067 7.592 3.59333 8.194 2.716 8.838H7.322Z" fill="white"/>
</svg>
