<svg width="120" height="24" viewBox="0 0 120 24" fill="none" xmlns="http://www.w3.org/2000/svg">
<g clip-path="url(#clip0_589_373)">
<path d="M10.9805 3.88281L8.69531 8.55859L3.52734 9.29688C2.61328 9.4375 2.26172 10.5625 2.92969 11.2305L6.62109 14.8516L5.74219 19.9492C5.60156 20.8633 6.58594 21.5664 7.39453 21.1445L12 18.7188L16.5703 21.1445C17.3789 21.5664 18.3633 20.8633 18.2227 19.9492L17.3438 14.8516L21.0352 11.2305C21.7031 10.5625 21.3516 9.4375 20.4375 9.29688L15.3047 8.55859L12.9844 3.88281C12.5977 3.07422 11.4023 3.03906 10.9805 3.88281Z" fill="#FFAD0D"/>
</g>
<g clip-path="url(#clip1_589_373)">
<path d="M34.9805 3.88281L32.6953 8.55859L27.5273 9.29688C26.6133 9.4375 26.2617 10.5625 26.9297 11.2305L30.6211 14.8516L29.7422 19.9492C29.6016 20.8633 30.5859 21.5664 31.3945 21.1445L36 18.7188L40.5703 21.1445C41.3789 21.5664 42.3633 20.8633 42.2227 19.9492L41.3438 14.8516L45.0352 11.2305C45.7031 10.5625 45.3516 9.4375 44.4375 9.29688L39.3047 8.55859L36.9844 3.88281C36.5977 3.07422 35.4023 3.03906 34.9805 3.88281Z" fill="#FFAD0D"/>
</g>
<g clip-path="url(#clip2_589_373)">
<path d="M58.9805 3.88281L56.6953 8.55859L51.5273 9.29688C50.6133 9.4375 50.2617 10.5625 50.9297 11.2305L54.6211 14.8516L53.7422 19.9492C53.6016 20.8633 54.5859 21.5664 55.3945 21.1445L60 18.7188L64.5703 21.1445C65.3789 21.5664 66.3633 20.8633 66.2227 19.9492L65.3438 14.8516L69.0352 11.2305C69.7031 10.5625 69.3516 9.4375 68.4375 9.29688L63.3047 8.55859L60.9844 3.88281C60.5977 3.07422 59.4023 3.03906 58.9805 3.88281Z" fill="#FFAD0D"/>
</g>
<g clip-path="url(#clip3_589_373)">
<path d="M82.9805 3.88281L80.6953 8.55859L75.5273 9.29688C74.6133 9.4375 74.2617 10.5625 74.9297 11.2305L78.6211 14.8516L77.7422 19.9492C77.6016 20.8633 78.5859 21.5664 79.3945 21.1445L84 18.7188L88.5703 21.1445C89.3789 21.5664 90.3633 20.8633 90.2227 19.9492L89.3438 14.8516L93.0352 11.2305C93.7031 10.5625 93.3516 9.4375 92.4375 9.29688L87.3047 8.55859L84.9844 3.88281C84.5977 3.07422 83.4023 3.03906 82.9805 3.88281Z" fill="#FFAD0D"/>
</g>
<g clip-path="url(#clip4_589_373)">
<path d="M116.438 9.29688L111.305 8.55859L108.984 3.88281C108.598 3.07422 107.402 3.03906 106.98 3.88281L104.695 8.55859L99.5273 9.29688C98.6133 9.4375 98.2617 10.5625 98.9297 11.2305L102.621 14.8516L101.742 19.9492C101.602 20.8633 102.586 21.5664 103.395 21.1445L108 18.7188L112.57 21.1445C113.379 21.5664 114.363 20.8633 114.223 19.9492L113.344 14.8516L117.035 11.2305C117.703 10.5625 117.352 9.4375 116.438 9.29688ZM112.113 14.4297L113.098 20.125L108 17.4531L102.867 20.125L103.852 14.4297L99.7031 10.4219L105.434 9.57812L108 4.375L110.531 9.57812L116.262 10.4219L112.113 14.4297Z" fill="#FFAD0D"/>
</g>
<defs>
<clipPath id="clip0_589_373">
<rect width="24" height="24" fill="white"/>
</clipPath>
<clipPath id="clip1_589_373">
<rect width="24" height="24" fill="white" transform="translate(24)"/>
</clipPath>
<clipPath id="clip2_589_373">
<rect width="24" height="24" fill="white" transform="translate(48)"/>
</clipPath>
<clipPath id="clip3_589_373">
<rect width="24" height="24" fill="white" transform="translate(72)"/>
</clipPath>
<clipPath id="clip4_589_373">
<rect width="24" height="24" fill="white" transform="translate(96)"/>
</clipPath>
</defs>
</svg>
